<?xml version="1.0" encoding="UTF-8" standalone="no"?>
<!DOCTYPE svg PUBLIC "-//W3C//DTD SVG 1.1//EN" "http://www.w3.org/Graphics/SVG/1.1/DTD/svg11.dtd">
<svg width="100%" height="100%" viewBox="0 0 430 70" version="1.1" xmlns="http://www.w3.org/2000/svg" xmlns:xlink="http://www.w3.org/1999/xlink" xml:space="preserve" xmlns:serif="http://www.serif.com/" style="fill-rule:evenodd;clip-rule:evenodd;stroke-linejoin:round;stroke-miterlimit:2;">
    <path d="M69.2,61.1C72.1,59.2 74.9,57 74.9,52.6L74.9,25L70.5,20.4L68.8,22.1L72.6,26.1L72.6,52.5C72.6,56.2 71.3,58.9 69,60.7L69.2,61.1ZM52.3,2.7L52.3,3C53.6,3.5 55.1,4.8 55.1,7.3L55.1,48L53.5,49.6L59.6,54.8L61.4,53.3L56.5,49.3L57.4,48.5L57.4,7.7C57.4,4.5 54.5,2.9 52.3,2.7M56,63.9C63.8,63.3 71.5,60.7 71.5,52.4L71.5,26.4L68,22.9L64.1,26.7L64.1,46.2L67.3,49.1L59.9,55.7L59.2,55.7L52,49.5L54,47.6L54,7.8C54,4.8 51.5,3.2 49.9,2.9L49.9,2.2C50.6,1.8 51.7,1.6 53.1,1.6C55.6,1.6 57.9,3.1 58.6,4.7L58.8,4.7C60.3,2.5 62.7,1.6 65,1.5C65.7,1.5 66.5,1.6 67.3,1.8L67.3,2.6C66,3 64.1,4.6 64.1,8.5L64.1,25L73.7,15.8L74.4,15.8C75.1,16.5 79.3,20.3 80.1,20.8C80.5,21 81,21.2 81.4,21.2C82.2,21.2 82.7,20.9 83.4,20.6L83.4,21.6C82.6,22.3 81.7,23.6 81.7,25.2L81.7,47.7C81.7,57.7 70.8,63.7 56,64.8C56,65 56,63.9 56,63.9ZM100.3,20.5L98.4,21.9C100.6,24.5 103.5,27.9 106.3,31L108.3,29.6C105.4,26.5 102.6,23.1 100.3,20.5M98,36.5L105.2,31.6C102.7,28.7 100.1,25.8 98,23.4L98,36.5ZM102.7,53.1C98.4,51.1 94.5,49.6 91,47.7C91.2,46.4 91.3,44.9 91.3,40.7L91.3,24.4L89,25.6L89,40.8C89,45 88.9,47.7 88.6,48.9C92,50.8 96.8,52.8 101.2,54.7L102.7,53.1ZM87.8,24.9C92.1,22.8 98.5,19 102.8,15.9L103.6,15.9C106.4,18.8 110.5,23.5 114,26.6L114,27.4L98,37.8L98,44.2C99.7,45.2 104.3,47.6 107.1,48.5L113.5,42.3L114.3,43.1L101.4,55.6L100.6,55.6C96.3,53.7 90.6,51.3 87,49.3C87.4,48 87.8,44.6 87.8,40.5L87.8,24.9ZM415.3,61C418.2,59.1 421,56.9 421,52.5L421,24.9L416.6,20.3L414.9,22L418.7,26L418.7,52.4C418.7,56.1 417.3,58.8 415.1,60.6C415.1,60.7 415.3,61 415.3,61ZM398.5,2.6L398.4,2.9C399.7,3.4 401.3,4.7 401.3,7.2L401.3,47.8L399.7,49.4L405.8,54.6L407.6,53.1L402.7,49.1L403.6,48.3L403.6,7.6C403.5,4.4 400.6,2.8 398.5,2.6M402.1,63.8C409.9,63.2 417.6,60.6 417.6,52.3L417.6,26.3L414.1,22.7L410.2,26.5L410.2,46L413.4,48.9L406,55.5L405.3,55.5L398,49.3L400,47.4L400,7.7C400,4.7 397.5,3.1 395.9,2.8L395.9,2.1C396.6,1.7 397.7,1.5 399.1,1.5C401.6,1.5 403.9,3 404.6,4.6L404.8,4.6C406.3,2.4 408.7,1.5 411,1.4C411.7,1.4 412.5,1.5 413.3,1.7L413.3,2.5C412,2.9 410.2,4.5 410.2,8.4L410.2,25L419.8,15.8L420.5,15.8C421.2,16.5 425.4,20.3 426.2,20.8C426.6,21 427.1,21.2 427.6,21.2C428.4,21.2 429,20.9 429.6,20.6L429.6,22C428.8,22.7 427.9,24 427.9,25.6L427.9,47.8C427.9,57.8 417,63.8 402.2,64.9L402.1,63.8ZM195,20.5L193.1,21.9C195.3,24.5 198.2,27.9 201,31L203,29.6C200.2,26.5 197.3,23 195,20.5M192.9,36.4L200.1,31.5C197.6,28.6 195,25.7 192.9,23.3L192.9,36.4ZM197.5,53C193.2,51 189.3,49.5 185.8,47.6C186,46.3 186.1,44.8 186.1,40.6L186.1,24.3L183.8,25.5L183.8,40.7C183.8,44.9 183.7,47.6 183.4,48.8C186.8,50.7 191.6,52.7 196,54.6L197.5,53ZM182.7,24.8C187,22.7 193.4,18.9 197.7,15.8L198.5,15.8C201.3,18.7 205.4,23.4 208.9,26.5L208.9,27.3L192.9,37.7L192.9,44.1C194.5,45.1 199.2,47.5 202,48.4L208.4,42.2L209.2,43L196.3,55.5L195.5,55.5C191.1,53.6 185.5,51.2 181.9,49.2C182.3,47.9 182.7,44.6 182.7,40.4L182.7,24.8ZM222.3,52.9C219.4,52.1 216.5,50.2 216.5,46.2L216.5,9.8L213.3,6.5L211.6,8.2L214.2,10.9L214.2,47.1C214.2,51.2 217.5,53.8 220.6,54.6L222.3,52.9ZM223.3,6.7L223.3,45.2C223.3,46.8 224.9,48.4 226.4,48.7L228.7,46.4L229.4,47.2L221.2,55.6L220.8,55.6C217.7,54.9 213.2,52.1 213.2,47.3L213.2,11.5L210.9,9.2L208.5,11.6L207.8,10.8L217,1.5L217.6,1.5L223.3,6.7ZM245.4,20.5L243.5,21.9C245.7,24.5 248.6,27.9 251.4,31L253.4,29.6C250.6,26.4 247.7,23 245.4,20.5M243.2,36.4L250.4,31.5C247.9,28.6 245.3,25.7 243.2,23.3L243.2,36.4ZM247.8,53C243.5,51 239.6,49.5 236.1,47.6C236.3,46.3 236.4,44.8 236.4,40.6L236.4,24.3L234.1,25.5L234.1,40.7C234.1,44.9 234,47.6 233.7,48.8C237.1,50.7 241.9,52.7 246.3,54.6L247.8,53ZM233,24.8C237.3,22.7 243.7,18.9 248,15.8L248.8,15.8C251.6,18.7 255.7,23.4 259.2,26.5L259.2,27.3L243.3,37.7L243.3,44.1C244.9,45.1 249.6,47.5 252.4,48.4L258.8,42.2L259.6,43L246.6,55.5L245.8,55.5C241.5,53.6 235.8,51.2 232.2,49.2C232.6,47.9 233,44.6 233,40.4L233,24.8ZM313.9,23C315.2,24.2 317,25.9 318.5,27.2L320,25.5C318.6,24.2 316.4,22.4 315.4,21.3C315.3,21.2 313.9,23 313.9,23ZM310,52.9C307,52.1 304.2,50.2 304.2,46.2L304.2,24.2L301.1,21L299.3,22.7L301.9,25.4L301.9,47.2C301.9,51.3 305.2,53.9 308.3,54.7L310,52.9ZM310.9,26.4L310.9,45.3C310.9,47 312.4,48.4 314,48.7L316.3,46.5L317,47.3L308.8,55.7L308.3,55.7C305.2,55 300.8,52.2 300.8,47.4L300.8,25.8L298.5,23.5L296.1,25.9L295.3,25.1L304.5,15.8L305.2,15.8L311,21.5L311,24.6L318.4,15.8L319.1,15.8C320.6,17.3 322.9,19.5 324.9,21L324.9,21.1L318.7,28.5L318.6,28.5C316.9,27 314.6,24.9 313.3,23.6C313.1,23.7 310.9,26.4 310.9,26.4ZM342.7,46.7L342.7,35C340.4,34.4 338,33.4 335.7,32.3L335.7,46.8L339.8,49.3L342.7,46.7ZM352,53C349.2,52 346.2,49.9 346.2,46L346.2,25.7L335.1,20.1C334.8,20.3 333.5,21.2 333.1,21.5L343.8,27.1L343.8,46.8C343.8,50.6 347.3,53.5 350.2,54.6L352,53ZM342.7,33.8L342.7,27.7L332.2,22.2C331.4,22.8 328.6,24.5 327.7,25C330.2,28.3 336.7,32.3 342.7,33.8M336.4,52.8L329,47.9L329,37L326.8,38.7L326.8,49.3L334.7,54.6C334.7,54.5 336.4,52.8 336.4,52.8ZM334.5,55.6L325.6,49.7L325.6,38.1C327.8,36.5 332.5,33.3 334.7,31.7C331.2,29.8 328.2,27.5 326.4,25.3L326.4,24.5C331.7,21.5 335.5,18.7 338.7,15.8L339.4,15.8C339.4,15.8 350.3,21 350.9,21.2C351.5,21.5 351.9,21.7 352.5,21.7C353.3,21.7 353.9,21.5 354.7,21.1L354.7,22.3C353.9,22.9 353,24 353,25.7L353,45.2C353,47.2 354.8,48.6 356.1,48.9L358.4,46.6L359.1,47.4L350.9,55.8L350.4,55.8C347.2,54.9 343.6,51.8 343,48.2L335.1,55.9C335,55.7 334.5,55.7 334.5,55.6ZM280.5,46.7L280.5,26.5L273.1,23.3L273.1,46.3L277.7,49.4L280.5,46.7ZM284,24.2L273.1,19.6L273.1,22L281.6,25.7L281.6,47.9C281.6,52.7 283.7,57.9 286.9,61.9L288.6,60.2C285.8,56.5 283.9,52.4 283.9,47.6L284,24.2ZM272.3,54.5L274.1,52.9L266.3,47.9L266.3,24.1L264.1,25.7L264.1,49L272.3,54.5ZM269.2,63.9C266.3,63.9 263.8,65.2 262.3,67.2L262.3,67.6C264,66.6 266,66 269.2,66C273,66 277.9,67.1 280.7,68.6L282.2,66.8C278.9,65.2 274.2,63.9 269.2,63.9M262.9,49.5L262.9,25L275.9,15.9L276.7,15.9C279.2,17 287.6,20.5 288.6,21C289,21.1 289.5,21.3 290,21.3C290.8,21.3 291.6,21 292.5,20.6L292.5,22C291.7,22.7 290.7,24.2 290.7,25.4L290.7,46.2C290.7,51.1 291.7,53.9 293.7,55.9L293.7,56.7C290.8,59.6 284.2,66.4 281.3,70L280.8,70C278,68.4 273.2,67.2 269.3,67.2C266.4,67.2 263.2,68 260.7,69.9L260.1,69.4C262.3,64.2 267.1,58.9 273.2,58.9C277,58.9 282,60.5 286.2,62.8C283.3,59.5 280.7,53.4 280.6,48.3L272.9,55.7L272.3,55.7L262.9,49.5ZM379.1,22.3L383.1,26.2L383.1,47.6L385.4,46.3L385.4,25L380.9,20.5L379.1,22.3ZM380.7,55.2C381.1,54.6 381.9,53.8 382.3,53.3L374.4,51.6L374.4,53.8L380.7,55.2ZM381.9,47.6L381.9,26.5L378.4,22.9L374.5,26.6L374.5,46.1C376.2,46.5 381,47.4 381.9,47.6M365.5,62.1L363.9,63.6L369.8,68.7L371.6,67.1L367,63.2L367.8,62.4L367.8,24.4L364.5,21.1L362.9,22.7L365.5,25.4L365.5,62.1ZM374.4,25L384,15.9L384.7,15.9C385.4,16.6 389.8,20.5 390.5,21C390.9,21.2 391.4,21.3 391.8,21.3C392.6,21.3 393.2,21 393.8,20.7L393.8,22C393,22.6 392.1,24 392.1,25.6L392.1,49.1C388,50.1 384.7,52.3 381.2,56.4L380.9,56.4L374.5,55.1L374.5,60.3L377.8,63.3L370,69.8L369.6,69.8L362.3,63.6L364.3,61.5L364.3,52.8C363.5,52.6 362,52.4 361.3,52.2L361.3,51.1C362.2,50.7 364.5,48.5 364.5,46.6L364.5,25.9L362.2,23.6L359.8,26L359,25.2L368.2,15.9L368.9,15.9L374.7,21.6L374.4,25ZM22.9,36.4L22.8,26.2L20.5,27.8L20.5,37.3C20.5,38.3 20.3,39.2 20,39.9L20.3,39.9C21.7,39 22.9,37.6 22.9,36.4M11.1,20.4C7.8,23.7 4.7,28.3 4.7,34.1C4.7,47.9 14,54.9 25.8,54.9C33.1,54.9 38.3,50.9 41.3,47.9L41.1,47.6C37.7,50.4 33,52.6 25.8,52.6C16.3,52.6 7.1,46.8 7.1,34C7.1,29 9,24 11.4,20.6L11.1,20.4ZM36.4,15C27.6,15 19.6,10.7 13.2,10.7C9.1,10.7 4.3,12.4 2.6,17.2L2.9,17.3C4.8,14 9.3,12.9 13.2,12.9C19.6,12.9 27.6,17.3 36.4,17.3C43.5,17.3 47.6,14.9 48.3,9.2L47.9,9.1C46.9,13.4 43.5,15 36.4,15M3.5,34.1C3.5,24.7 10.6,18.2 17.2,15.3L17.7,15.9C15.3,18.7 13.6,21.4 13.6,27.1C13.6,33.6 15.3,38.1 18,41.1C18.9,40.1 19.4,38.5 19.4,37.1L19.4,27.4L31.3,18.9L31.8,19.6C30.8,21.1 30.2,22.5 30.2,24.8L30.2,31C30.2,35.3 23.1,40 18.7,41.8C21.6,44.6 25.7,45.8 30.2,45.8C31.8,45.8 33.3,45.7 34.6,45.5L34.6,18.2C30.7,18 27,16.9 23.6,16C20,14.9 16.3,14 13.2,14C8.4,14 2.6,15.6 2.5,22.6C2.5,23.2 2.6,23.9 2.7,24.6L1.8,24.9C1,22.7 0.5,20.6 0.5,18.5C0.4,10.1 6.6,2.7 16.6,2.7C20.8,2.7 24.8,3.7 28.2,4.7C31.9,5.8 35.6,6.7 39.4,6.7C41.3,6.7 42.4,5.7 42.4,3.9C42.4,2.1 41.4,1.3 40,0.9L40.2,0C44.5,0.8 49.2,3.3 49.2,8.7C49.2,15.2 44.5,18.3 36.5,18.3L35.7,18.3L35.7,45.3C40.9,44.3 44.4,41.9 47,37.7L47.8,38.2C44.9,47.4 38.1,56.2 25.9,56.2C13.6,56.1 3.5,48.9 3.5,34.1M153.3,36.4L153.2,26.2L150.9,27.8L150.9,37.3C150.9,38.3 150.7,39.2 150.4,39.9L150.7,39.9C152.2,39 153.3,37.6 153.3,36.4M141.6,20.4C138.3,23.7 135.2,28.3 135.2,34.1C135.2,48 144.5,54.9 156.3,54.9C163.6,54.9 168.8,50.9 171.7,47.9L171.5,47.6C168.1,50.4 163.4,52.6 156.3,52.6C146.8,52.6 137.6,46.8 137.6,34C137.6,28.9 139.4,23.9 141.8,20.5L141.6,20.4ZM166.9,15C158.1,15 150.1,10.7 143.7,10.7C139.6,10.7 134.8,12.4 133.1,17.2L133.4,17.3C135.3,14 139.8,12.9 143.7,12.9C150.1,12.9 158.1,17.3 166.9,17.3C174,17.3 178.1,14.9 178.8,9.2L178.4,9.1C177.4,13.4 174,15 166.9,15M134,34.1C134,24.7 141.1,18.2 147.7,15.3L148.1,15.9C145.7,18.7 144,21.4 144,27.1C144,33.6 145.7,38.1 148.4,41.1C149.3,40.1 149.8,38.5 149.8,37.1L149.8,27.4L161.7,18.9L162.2,19.6C161.1,21.1 160.6,22.5 160.6,24.8L160.6,31C160.6,35.3 153.5,40 149.1,41.8C152,44.6 156.1,45.8 160.6,45.8C162.2,45.8 163.7,45.7 165,45.5L165,18.2C161.1,18 157.4,16.9 154.1,16C150.5,14.9 146.8,14 143.7,14C138.9,14 133.1,15.6 133,22.6C133,23.2 133.1,23.9 133.1,24.6L132.2,24.9C131.4,22.7 130.9,20.6 130.9,18.5C130.8,10 137,2.6 147,2.6C151.2,2.6 155.2,3.6 158.6,4.6C162.3,5.6 166,6.6 169.8,6.6C171.7,6.6 172.8,5.6 172.8,3.8C172.8,2 171.9,1.1 170.5,0.7L170.6,-0.2C174.9,0.6 179.6,3.1 179.6,8.5C179.6,15 174.9,18.1 167,18.1L166.2,18.1L166.2,45.1C171.4,44.1 174.9,41.7 177.5,37.5L178.3,38C175.4,47.2 168.6,56 156.4,56C144.1,56.1 134,48.9 134,34.1" style="fill:rgb(136,132,128);fill-rule:nonzero;"/>
</svg>
