<?xml version="1.0" encoding="UTF-8" standalone="no"?>
<!DOCTYPE svg PUBLIC "-//W3C//DTD SVG 1.1//EN" "http://www.w3.org/Graphics/SVG/1.1/DTD/svg11.dtd">
<svg width="100%" height="100%" viewBox="0 0 294 84" version="1.1" xmlns="http://www.w3.org/2000/svg" xmlns:xlink="http://www.w3.org/1999/xlink" xml:space="preserve" xmlns:serif="http://www.serif.com/" style="fill-rule:evenodd;clip-rule:evenodd;stroke-linejoin:round;stroke-miterlimit:2;">
    <g>
        <path d="M294,0L294,84L210,84L210,0L294,0ZM189,0L189,84L105,84L105,0L189,0ZM84,0L84,84L0,84L0,0L84,0ZM255.9,17.9C252.1,17.9 248.7,18.5 245.7,19.6C242.8,20.6 240.1,22.3 237.9,24.5C235.7,26.6 234,29.2 232.9,32.1C231.7,35.1 231.2,38.4 231.2,42C231.2,45.8 231.8,49.1 232.9,52.1C234,55.1 235.6,57.6 237.7,59.7C239.8,61.8 242.3,63.4 245.4,64.5C248.4,65.6 251.8,66.2 255.6,66.2C258.4,66.2 261.2,65.9 263.7,65.3C266.1,64.8 268.4,63.9 270.5,62.7L270.5,53.7C266.4,56.2 261.7,57.6 257,57.5C253.8,57.5 251.1,56.9 248.8,55.7C246.6,54.5 244.8,52.7 243.7,50.4C242.5,48.1 241.9,45.3 241.9,42C241.9,38.7 242.5,35.9 243.7,33.6C244.9,31.4 246.7,29.5 249,28.4C251.3,27.2 254.1,26.6 257.3,26.6C259.7,26.6 261.9,26.9 264,27.5C266.1,28.1 268.1,29 269.9,30.3L269.9,21C267.8,19.9 265.7,19.1 263.4,18.6C260.9,18.1 258.4,17.9 255.9,17.9ZM146.4,18.4L128.7,18.4L128.7,65.6L147.5,65.6C151.2,65.6 154.4,65.1 157.1,63.9C159.8,62.8 161.8,61.2 163.2,59.2C164.6,57.2 165.4,54.7 165.4,51.9C165.4,49 164.7,46.6 163.2,44.6C161.7,42.6 159.6,41.1 156.8,40.2C158.8,39.2 160.3,37.9 161.4,36.3C162.4,34.6 162.9,32.7 162.9,30.5C162.9,26.6 161.5,23.6 158.6,21.5C155.7,19.4 151.6,18.4 146.4,18.4ZM41.4,18.4L23.6,18.4L23.6,65.6L42.4,65.6C46.1,65.6 49.3,65.1 52,63.9C54.7,62.8 56.7,61.2 58.1,59.2C59.5,57.2 60.3,54.7 60.3,51.9C60.3,49 59.6,46.6 58.1,44.6C56.6,42.6 54.5,41.1 51.7,40.2C53.7,39.2 55.2,37.9 56.3,36.3C57.3,34.6 57.8,32.7 57.8,30.5C57.8,26.6 56.4,23.6 53.5,21.5C50.6,19.4 46.6,18.4 41.4,18.4ZM146.7,45.2C152.6,45.2 155.5,47.4 155.5,51.7C155.5,53.7 154.7,55.3 153.2,56.4C151.7,57.5 149.4,58 146.6,58L138.2,58L138.2,45.2L146.7,45.2ZM41.7,45.2C47.6,45.2 50.5,47.4 50.5,51.7C50.5,53.7 49.7,55.3 48.2,56.4C46.7,57.5 44.4,58 41.6,58L33.2,58L33.2,45.2L41.7,45.2ZM145.5,26C150.6,26 153.1,27.9 153.1,31.6C153.1,33.5 152.4,35 151.1,36.1C149.8,37.2 147.9,37.7 145.4,37.7L138.1,37.7L138.1,26L145.5,26ZM40.5,26C45.6,26 48.1,27.9 48.1,31.6C48.1,33.5 47.4,35 46.1,36.1C44.8,37.2 42.9,37.7 40.4,37.7L33.1,37.7L33.1,26L40.5,26Z" style="fill:rgb(136,132,128);fill-rule:nonzero;"/>
    </g>
</svg>
