<?xml version="1.0" encoding="UTF-8" standalone="no"?>
<!DOCTYPE svg PUBLIC "-//W3C//DTD SVG 1.1//EN" "http://www.w3.org/Graphics/SVG/1.1/DTD/svg11.dtd">
<svg width="100%" height="100%" viewBox="0 0 747 246" version="1.1" xmlns="http://www.w3.org/2000/svg" xmlns:xlink="http://www.w3.org/1999/xlink" xml:space="preserve" xmlns:serif="http://www.serif.com/" style="fill-rule:evenodd;clip-rule:evenodd;stroke-linejoin:round;stroke-miterlimit:2;">
    <g>
        <path d="M125.434,0.462L223.216,0.462C235.493,0.462 245.538,10.507 245.538,22.784L245.538,223.679C245.538,235.955 235.493,246 223.216,246L22.321,246C10.044,246 0,235.955 0,223.679L0,22.784C0,10.507 10.044,0.462 22.321,0.462L67.579,0.462C68.424,19.999 68.687,29.872 65.55,39.107C60.013,55.334 42.062,72.352 29.645,85.51C25.363,90.03 42.768,102.237 61.193,87.811C67.876,82.564 78.436,72.223 87.011,65.513C90.886,62.452 95.9,61.019 101.01,61.777C108.091,62.805 112.952,66.073 117.912,72.023C122.941,78.045 127.692,86.209 134.173,96.803C146.397,116.795 160.137,139.416 174.86,162.797C182.347,174.693 192.327,179.676 205.999,179.345C207.324,179.312 207.508,178.565 207.084,177.697C197.494,157.144 150.985,61.176 140.914,39.068C135.716,27.657 130.272,13.401 125.434,0.462ZM22.179,201.425L22.183,201.812C22.269,213.714 32.15,223.626 44.051,223.712L200.942,223.814C213.146,223.814 223.126,213.705 223.213,201.804L223.217,201.425L22.179,201.425ZM101.864,77.249C99.922,77.394 99.179,78.091 97.491,80.674C86.233,97.857 54.537,146.45 49.47,154.529C45.264,161.25 43.647,166.644 44.998,171.989C46.146,176.985 50.018,180.473 56.098,181.792C57.635,181.952 59.117,181.498 60.14,180.215C68.348,170.079 114.368,108.327 122.989,96.751C124.165,95.177 123.876,94.527 123.221,93.19C121.624,89.942 115.626,83.348 110.861,80.249C107.672,78.178 104.558,77.22 102.41,77.22C102.217,77.22 102.037,77.232 101.864,77.249Z" style="fill:rgb(136,132,128);"/>
        <path d="M432.774,29.297C435.609,24.944 439.155,22.766 443.417,22.766C447.669,22.766 450.923,24 453.187,26.451C455.467,28.91 456.595,31.753 456.595,34.963C456.595,38.178 455.841,41.008 454.333,43.467L386.277,138.452L386.277,210.751C386.277,214.342 385.041,217.376 382.593,219.824C380.14,222.286 377.108,223.503 373.515,223.503C369.934,223.503 366.848,222.286 364.305,219.824C361.752,217.376 360.48,214.342 360.48,210.751L360.48,138.452L292.717,43.467C291.193,41.008 290.445,38.178 290.445,34.963C290.445,31.753 291.585,28.91 293.845,26.451C296.12,24 299.376,22.766 303.631,22.766C307.879,22.766 311.429,24.944 314.259,29.297L373.515,115.479L432.774,29.297Z" style="fill:rgb(136,132,128);fill-rule:nonzero;"/>
        <path d="M498.232,96.481C481.407,96.481 469.126,103.952 461.376,118.885C458.534,124.179 456.935,130.507 456.552,137.885L540.192,137.885C539.44,124.465 534.528,113.884 525.45,106.126C517.883,99.7 508.823,96.481 498.232,96.481ZM471.016,189.489C479.135,197.054 490.476,200.824 505.037,200.824C519.584,200.824 531.787,198.378 541.619,193.456C545.02,191.747 547.945,190.907 550.404,190.907C552.864,190.907 555.222,191.942 557.488,194.021C559.753,196.105 560.891,198.469 560.891,201.107C560.891,206.031 558.854,209.578 554.81,211.744C550.729,213.916 547.097,215.759 543.881,217.269C540.654,218.784 537.177,220.106 533.4,221.24C524.886,223.689 515.056,224.925 503.905,224.925C480.649,224.925 462.604,218.405 449.757,205.36C436.892,192.323 430.475,173.799 430.475,149.785C430.475,129 435.864,111.702 446.625,97.907C458.733,82.407 475.937,74.656 498.232,74.656C519.401,74.656 536.136,81.846 548.428,96.2C559.951,109.629 565.719,126.254 565.719,146.114C565.719,149.696 564.529,152.73 562.169,155.172C559.801,157.641 556.631,158.872 552.67,158.872L456.552,158.872C458.064,171.717 462.888,181.928 471.016,189.489Z" style="fill:rgb(136,132,128);fill-rule:nonzero;"/>
        <path d="M593.679,17.383C596.132,14.929 599.219,13.698 602.894,13.698C606.583,13.698 609.648,14.929 612.113,17.383C614.566,19.837 615.812,22.961 615.812,26.743L615.812,210.751C615.812,214.342 614.566,217.376 612.113,219.824C609.648,222.286 606.583,223.503 602.894,223.503C599.219,223.503 596.132,222.286 593.679,219.824C591.232,217.376 589.995,214.342 589.995,210.751L589.995,26.743C589.995,22.961 591.232,19.837 593.679,17.383Z" style="fill:rgb(136,132,128);fill-rule:nonzero;"/>
        <path d="M649.028,17.383C651.493,14.929 654.562,13.698 658.259,13.698C661.936,13.698 665.006,14.929 667.465,17.383C669.918,19.837 671.158,22.961 671.158,26.743L671.158,210.751C671.158,214.342 669.918,217.376 667.465,219.824C665.006,222.286 661.936,223.503 658.259,223.503C654.562,223.503 651.493,222.286 649.028,219.824C646.584,217.376 645.337,214.342 645.337,210.751L645.337,26.743C645.337,22.961 646.584,19.837 649.028,17.383Z" style="fill:rgb(136,132,128);fill-rule:nonzero;"/>
        <path d="M718.76,202.227C719.023,202.489 719.154,202.81 719.154,203.187C719.154,203.565 719.023,203.879 718.76,204.131C718.498,204.383 718.178,204.509 717.8,204.509L711.411,204.509L711.411,222.545C711.411,222.943 711.269,223.279 710.986,223.552C710.703,223.824 710.362,223.961 709.963,223.961C709.564,223.961 709.228,223.824 708.956,223.552C708.683,223.279 708.546,222.943 708.546,222.545L708.546,204.509L702.125,204.509C701.748,204.509 701.433,204.383 701.181,204.131C700.929,203.879 700.803,203.565 700.803,203.187C700.803,202.81 700.929,202.489 701.181,202.227C701.433,201.965 701.748,201.833 702.125,201.833L717.8,201.833C718.178,201.833 718.498,201.965 718.76,202.227Z" style="fill:rgb(136,132,128);fill-rule:nonzero;"/>
        <path d="M746.349,202.29C746.748,202.699 746.947,203.187 746.947,203.754L746.947,222.545C746.947,222.943 746.81,223.279 746.538,223.552C746.265,223.824 745.929,223.961 745.531,223.961C745.131,223.961 744.791,223.824 744.507,223.552C744.224,223.279 744.083,222.943 744.083,222.545L744.083,204.666L736.812,222.639C736.643,223.038 736.381,223.358 736.025,223.599C735.667,223.84 735.258,223.961 734.797,223.961C734.335,223.961 733.926,223.84 733.57,223.599C733.212,223.358 732.951,223.038 732.783,222.639L725.512,204.666L725.512,222.545C725.512,222.943 725.37,223.279 725.086,223.552C724.803,223.824 724.462,223.961 724.064,223.961C723.665,223.961 723.329,223.824 723.056,223.552C722.784,223.279 722.647,222.943 722.647,222.545L722.647,203.754C722.647,203.187 722.846,202.699 723.246,202.29C723.644,201.881 724.126,201.676 724.693,201.676L725.732,201.676C726.152,201.676 726.535,201.802 726.881,202.054C727.227,202.306 727.484,202.62 727.652,202.998L734.797,220.814L741.942,202.998C742.11,202.62 742.367,202.306 742.713,202.054C743.06,201.802 743.442,201.676 743.862,201.676L744.901,201.676C745.467,201.676 745.95,201.881 746.349,202.29Z" style="fill:rgb(136,132,128);fill-rule:nonzero;"/>
    </g>
</svg>
