<?xml version="1.0" encoding="UTF-8" standalone="no"?>
<!DOCTYPE svg PUBLIC "-//W3C//DTD SVG 1.1//EN" "http://www.w3.org/Graphics/SVG/1.1/DTD/svg11.dtd">
<svg width="100%" height="100%" viewBox="0 0 200 26" version="1.1" xmlns="http://www.w3.org/2000/svg" xmlns:xlink="http://www.w3.org/1999/xlink" xml:space="preserve" xmlns:serif="http://www.serif.com/" style="fill-rule:evenodd;clip-rule:evenodd;stroke-linejoin:round;stroke-miterlimit:2;">
    <g>
        <path d="M20.275,9.506C19.952,4.21 15.52,0 10.167,0C4.552,0 0,4.508 0,10.126C0,12.821 1.063,15.302 2.855,17.127L9.558,9.517L20.275,9.506ZM13.835,25.595L26.738,25.595L26.738,17.174L20.275,9.506L13.835,17.174L13.835,25.595Z" style="fill:rgb(136,132,128);fill-rule:nonzero;"/>
        <rect x="153.237" y="10.149" width="5.018" height="15.421" style="fill:rgb(136,132,128);fill-rule:nonzero;"/>
        <path d="M152.951,5.987C152.951,4.353 154.098,3.208 155.735,3.208C157.372,3.208 158.531,4.353 158.531,5.987C158.531,7.621 157.384,8.766 155.735,8.766C154.086,8.766 152.951,7.621 152.951,5.987Z" style="fill:rgb(136,132,128);fill-rule:nonzero;"/>
        <rect x="84.026" y="10.149" width="5.018" height="15.421" style="fill:rgb(136,132,128);fill-rule:nonzero;"/>
        <path d="M83.74,5.987C83.74,4.353 84.887,3.208 86.536,3.208C88.185,3.208 89.332,4.353 89.332,5.987C89.332,7.621 88.185,8.766 86.536,8.766C84.887,8.766 83.74,7.621 83.74,5.987Z" style="fill:rgb(136,132,128);fill-rule:nonzero;"/>
        <path d="M77.455,10.15L77.455,6.369L74.23,6.369L73.847,7.931C73.465,9.351 72.999,10.15 71.458,10.436L70.347,10.603L70.347,13.656L72.509,13.656L72.509,21.432C72.509,24.903 74.779,25.976 77.288,25.976C79.307,25.976 80.633,25.487 81.792,24.617L81.792,21.432C80.849,21.85 80.048,22.052 79.283,22.052C78.101,22.052 77.467,21.492 77.467,20.18L77.467,13.632L81.577,13.632L81.577,10.15L77.455,10.15Z" style="fill:rgb(136,132,128);fill-rule:nonzero;"/>
        <path d="M35.603,25.571L40.621,25.571L40.621,17.866C40.621,15.362 41.745,13.763 43.692,13.763C45.436,13.763 46.273,14.908 46.273,17.198L46.273,25.571L51.291,25.571L51.291,15.779C51.291,11.855 49.236,9.732 45.854,9.732C43.035,9.732 41.255,11.223 40.621,13.513L40.621,10.15L35.603,10.15L35.603,25.571Z" style="fill:rgb(136,132,128);fill-rule:nonzero;"/>
        <path d="M99.522,9.732C94.469,9.732 91.159,13.131 91.159,17.962C91.159,22.792 94.469,25.988 99.522,25.988C104.576,25.988 107.993,22.792 107.993,17.962C107.993,13.131 104.6,9.732 99.522,9.732ZM99.522,22.124C97.396,22.124 96.07,20.597 96.07,17.962C96.07,15.326 97.396,13.585 99.522,13.585C101.649,13.585 103.083,15.326 103.083,17.962C103.083,20.597 101.649,22.124 99.522,22.124Z" style="fill:rgb(136,132,128);"/>
        <path d="M114.791,25.571L109.773,25.571L109.773,10.15L114.791,10.15L114.791,13.513C115.413,11.223 117.193,9.732 120.024,9.732C123.405,9.732 125.46,11.855 125.46,15.779L125.46,25.571L120.442,25.571L120.442,17.198C120.442,14.908 119.606,13.763 117.862,13.763C115.914,13.763 114.791,15.362 114.791,17.866L114.791,25.571Z" style="fill:rgb(136,132,128);fill-rule:nonzero;"/>
        <path d="M144.277,20.216L144.134,20.216L141.589,10.149L136.846,10.149L134.265,20.216L134.122,20.216L131.434,10.149L126.416,10.149L130.98,25.571L136.308,25.571L138.889,15.576L139.032,15.576L141.613,25.571L146.942,25.571L151.541,10.149L146.978,10.149L144.277,20.216Z" style="fill:rgb(136,132,128);fill-rule:nonzero;"/>
        <path d="M167.455,9.732C163.417,9.732 160.418,12.857 160.418,17.854C160.418,22.852 163.417,25.976 167.455,25.976C169.617,25.976 171.78,24.796 172.58,22.816L172.58,25.559L177.634,25.559L177.634,3.805L172.58,3.805L172.58,12.929C171.816,10.949 169.653,9.732 167.455,9.732ZM169.056,13.692C171.183,13.692 172.58,15.254 172.58,17.687L172.58,18.033C172.58,20.502 171.183,22.064 169.056,22.064C166.929,22.064 165.496,20.43 165.496,17.866C165.496,15.302 166.893,13.68 169.056,13.692Z" style="fill:rgb(136,132,128);"/>
        <path d="M195.269,21.456C194.206,24.342 191.589,26 187.945,26C183.023,26 179.522,23.007 179.522,18.105C179.522,13.203 183.083,9.72 187.838,9.72C192.975,9.72 195.663,13.239 195.663,17.449L195.663,18.987L184.481,18.987C184.624,21.039 186.165,22.219 188.113,22.219C189.738,22.219 190.789,21.647 191.374,20.43L195.269,21.456ZM184.552,16.292L190.801,16.292C190.693,14.765 189.714,13.37 187.79,13.37C185.771,13.37 184.827,14.658 184.552,16.292Z" style="fill:rgb(136,132,128);"/>
        <path d="M58.758,16.852C55.329,17.413 53.095,18.772 53.095,21.718C53.095,24.366 55.054,25.928 58.16,25.928C60.574,25.928 62.497,24.986 63.37,23.209C63.824,24.95 65.186,25.928 67.037,25.928C68.579,25.928 69.558,25.475 70.323,24.915L70.323,22.231C69.869,22.446 69.487,22.506 69.033,22.506C68.399,22.506 68.053,22.16 68.053,21.36L68.053,15.719C68.053,11.509 65.15,9.696 61.1,9.696C57.049,9.696 54.517,11.7 53.788,14.67L58.352,15.612C58.638,14.348 59.367,13.465 60.825,13.465C62.366,13.465 63.095,14.336 63.095,15.803L63.095,16.149L58.758,16.852ZM57.981,21.17C57.981,19.953 58.961,19.536 60.538,19.25L63.083,18.796L63.083,19.381C63.083,21.575 61.613,22.613 59.761,22.613C58.686,22.625 57.981,22.064 57.981,21.17Z" style="fill:rgb(136,132,128);"/>
    </g>
</svg>
