<?xml version="1.0" encoding="UTF-8" standalone="no"?>
<!DOCTYPE svg PUBLIC "-//W3C//DTD SVG 1.1//EN" "http://www.w3.org/Graphics/SVG/1.1/DTD/svg11.dtd">
<svg width="100%" height="100%" viewBox="0 0 305 75" version="1.1" xmlns="http://www.w3.org/2000/svg" xmlns:xlink="http://www.w3.org/1999/xlink" xml:space="preserve" xmlns:serif="http://www.serif.com/" style="fill-rule:evenodd;clip-rule:evenodd;stroke-linejoin:round;stroke-miterlimit:2;">
    <g>
        <g>
            <path d="M53.384,3.524C66.151,9.508 75,22.477 75,37.5C75,58.2 58.2,75 37.5,75C16.8,75 0,58.2 0,37.5C0,16.8 16.8,0 37.5,0C43.07,0 48.357,1.216 53.11,3.397C52.488,3.266 51.611,3.2 50.8,3.2C43,3.3 34.4,6.6 28.1,11.8C21.7,17.2 16.7,26.2 16.7,35.5C16.8,49.6 27.5,58.4 37.8,58.4C50.5,58.4 58,47.9 58,38.4C58,28.9 52.8,22 41.3,19.1L41.3,18.5C41.201,11.341 46.638,4.973 53.384,3.524Z" style="fill:rgb(136,132,128);"/>
            <path d="M99.2,53L87.8,25.7L95.2,25.7L102.4,43.8L109.3,25.7L116.5,25.7L105.3,53L99.2,53Z" style="fill:rgb(136,132,128);fill-rule:nonzero;"/>
            <path d="M143.4,39.2C143.4,41 143.1,42.7 142.6,44.5C142.1,46.2 141.2,47.8 140.2,49.1C139.1,50.5 137.8,51.6 136.1,52.4C134.5,53.2 132.5,53.6 130.3,53.6C128.1,53.6 126.2,53.2 124.5,52.4C122.9,51.6 121.5,50.5 120.4,49.1C119.3,47.7 118.5,46.2 118,44.5C117.4,42.8 117.2,41 117.2,39.2C117.2,37.4 117.5,35.7 118,34C118.5,32.3 119.4,30.8 120.4,29.4C121.5,28.1 122.8,27 124.5,26.2C126.1,25.4 128.1,25 130.3,25C132.5,25 134.4,25.4 136,26.2C137.6,27 139,28.1 140.1,29.4C141.2,30.7 142,32.3 142.6,34C143.1,35.7 143.4,37.5 143.4,39.2M136.4,39.2C136.4,38.1 136.3,37 136,36C135.7,35 135.3,34.1 134.8,33.4C134.3,32.7 133.6,32.1 132.9,31.6C132.2,31.1 131.3,30.9 130.2,30.9C129.2,30.9 128.3,31.1 127.5,31.6C126.7,32 126.1,32.6 125.6,33.4C125.1,34.1 124.7,35 124.4,36C124.1,37 124,38.1 124,39.2C124,40.4 124.1,41.5 124.4,42.5C124.7,43.5 125.1,44.4 125.6,45.1C126.1,45.9 126.8,46.5 127.5,46.9C128.3,47.3 129.2,47.6 130.2,47.6C131.2,47.6 132.1,47.4 132.9,46.9C133.7,46.5 134.3,45.9 134.8,45.1C135.3,44.3 135.7,43.5 136,42.5C136.3,41.5 136.4,40.4 136.4,39.2" style="fill:rgb(136,132,128);fill-rule:nonzero;"/>
            <path d="M165.1,53L164.8,50.9C164.2,51.6 163.3,52.3 162.3,52.8C161.2,53.3 160,53.6 158.6,53.6C156.7,53.6 155.1,53.2 153.6,52.4C152.2,51.6 151,50.5 150,49.2C149,47.9 148.3,46.3 147.8,44.6C147.3,42.9 147,41 147,39.2C147,37.4 147.3,35.7 147.8,34C148.3,32.3 149.1,30.8 150.2,29.4C151.3,28.1 152.6,27 154.2,26.2C155.8,25.4 157.7,25 159.9,25C161.3,25 162.9,25.3 164.5,25.8L164.5,15.2L171.5,15.2L171.5,53L165.1,53ZM164.5,31.7C163.1,31.2 161.9,30.9 160.7,30.9C159.5,30.9 158.5,31.1 157.6,31.6C156.7,32.1 156,32.7 155.5,33.4C154.9,34.2 154.5,35.1 154.2,36C153.9,37 153.8,38 153.8,39C153.8,40.1 153.9,41.2 154.2,42.3C154.4,43.3 154.8,44.3 155.3,45C155.8,45.8 156.4,46.4 157.2,46.9C158,47.4 158.9,47.6 159.9,47.6C160.8,47.6 161.7,47.4 162.6,46.9C163.5,46.4 164.1,45.9 164.5,45.2L164.5,31.7Z" style="fill:rgb(136,132,128);fill-rule:nonzero;"/>
            <path d="M191.9,53L191.6,51C190.8,51.8 189.9,52.5 188.7,53C187.5,53.5 186.2,53.7 184.8,53.7C183.6,53.7 182.5,53.5 181.4,53.1C180.3,52.7 179.4,52.1 178.5,51.4C177.7,50.7 177,49.8 176.5,48.7C176,47.6 175.7,46.4 175.7,45C175.7,43.6 176,42.4 176.5,41.4C177,40.4 177.8,39.5 178.7,38.8C179.6,38.1 180.7,37.5 181.8,37C183,36.5 184.2,36.2 185.5,36C186.4,35.8 187.4,35.7 188.5,35.6C189.6,35.5 190.5,35.4 191.2,35.3L191.2,34.9C191.2,33.4 190.8,32.3 190,31.7C189.2,31.1 188.1,30.7 186.8,30.7C186,30.7 185.2,30.8 184.5,31C183.8,31.2 183.1,31.4 182.6,31.7C182,32 181.5,32.3 181.1,32.6C180.7,32.9 180.3,33.1 180,33.4L177.7,28.5C178,28.2 178.5,27.9 179.1,27.5C179.7,27.1 180.5,26.8 181.4,26.4C182.3,26 183.3,25.7 184.4,25.5C185.5,25.3 186.7,25.1 188,25.1C189.5,25.1 190.9,25.3 192.1,25.7C193.3,26.1 194.4,26.7 195.3,27.6C196.2,28.4 196.9,29.5 197.4,30.8C197.9,32.1 198.2,33.7 198.2,35.5L198.2,53L191.9,53ZM191.4,40.2C190.6,40.2 189.9,40.3 189.1,40.4C188.3,40.5 187.5,40.6 186.8,40.8C185.3,41.1 184.2,41.6 183.6,42.4C183,43.1 182.7,43.9 182.7,44.8C182.7,45.7 183,46.4 183.7,47C184.4,47.6 185.3,47.8 186.5,47.8C187.4,47.8 188.3,47.6 189.2,47.2C190.1,46.8 190.8,46.3 191.4,45.8L191.4,40.2Z" style="fill:rgb(136,132,128);fill-rule:nonzero;"/>
            <path d="M220.1,21.4C219.9,21.3 219.4,21.1 218.8,20.9C218.1,20.7 217.3,20.6 216.2,20.6C215.2,20.6 214.4,20.9 213.7,21.5C213,22.1 212.7,23 212.7,24.4L212.7,25.7L218.6,25.7L218.6,31.4L212.8,31.4L212.8,53L205.8,53L205.8,31.3L202,31.3L202,25.6L205.6,25.6L205.6,24.1C205.6,22.3 205.8,20.8 206.3,19.6C206.8,18.4 207.4,17.4 208.2,16.6C209,15.8 210,15.3 211.1,14.9C212.2,14.5 213.4,14.4 214.7,14.4C216.4,14.4 217.8,14.6 218.9,14.9C220,15.2 220.7,15.4 220.9,15.6L220.1,21.4Z" style="fill:rgb(136,132,128);fill-rule:nonzero;"/>
            <path d="M246.2,39.2C246.2,41 245.9,42.7 245.4,44.5C244.9,46.2 244,47.8 243,49.1C241.9,50.5 240.6,51.6 238.9,52.4C237.3,53.2 235.3,53.6 233.1,53.6C230.9,53.6 229,53.2 227.3,52.4C225.7,51.6 224.3,50.5 223.2,49.1C222.1,47.7 221.3,46.2 220.8,44.5C220.2,42.8 220,41 220,39.2C220,37.4 220.3,35.7 220.8,34C221.3,32.3 222.2,30.8 223.2,29.4C224.3,28.1 225.6,27 227.3,26.2C228.9,25.4 230.9,25 233.1,25C235.3,25 237.2,25.4 238.8,26.2C240.4,27 241.8,28.1 242.9,29.4C244,30.7 244.8,32.3 245.4,34C245.9,35.7 246.2,37.5 246.2,39.2M239.3,39.2C239.3,38.1 239.2,37 238.9,36C238.6,35 238.2,34.1 237.7,33.4C237.2,32.7 236.5,32.1 235.8,31.6C235,31.2 234.2,30.9 233.1,30.9C232.1,30.9 231.2,31.1 230.4,31.6C229.6,32 229,32.6 228.5,33.4C228,34.1 227.6,35 227.3,36C227,37 226.9,38.1 226.9,39.2C226.9,40.4 227,41.5 227.3,42.5C227.6,43.5 228,44.4 228.5,45.1C229,45.9 229.7,46.5 230.4,46.9C231.2,47.3 232.1,47.6 233.1,47.6C234.1,47.6 235,47.4 235.8,46.9C236.6,46.5 237.2,45.9 237.7,45.1C238.2,44.3 238.6,43.5 238.9,42.5C239.1,41.5 239.3,40.4 239.3,39.2" style="fill:rgb(136,132,128);fill-rule:nonzero;"/>
            <path d="M268,53L268,37.4C268,35.3 267.6,33.7 266.7,32.6C265.8,31.5 264.6,30.9 263.1,30.9C262,30.9 261,31.2 260.1,31.8C259.2,32.4 258.4,33 257.7,33.7L257.7,53L250.7,53L250.7,25.7L257.1,25.7L257.4,27.9C258.5,27 259.7,26.3 261.1,25.8C262.5,25.3 263.9,25.1 265.3,25.1C266.7,25.1 268.1,25.3 269.3,25.8C270.5,26.2 271.6,26.9 272.4,27.9C273.3,28.8 273.9,30.1 274.4,31.6C274.9,33.1 275.1,34.9 275.1,37L275.1,53L268,53Z" style="fill:rgb(136,132,128);fill-rule:nonzero;"/>
            <path d="M286.4,41.1C286.6,43.4 287.3,45.1 288.6,46.1C289.9,47.1 291.6,47.6 293.6,47.6C294.6,47.6 295.4,47.5 296.3,47.3C297.1,47.1 297.9,46.9 298.5,46.6C299.1,46.3 299.7,46.1 300.2,45.8C300.7,45.5 301,45.3 301.2,45.1L303.1,50.8C302.8,51 302.4,51.2 301.8,51.6C301.2,51.9 300.5,52.2 299.6,52.5C298.7,52.8 297.7,53 296.5,53.2C295.3,53.4 294,53.5 292.6,53.5C290.8,53.5 289.1,53.2 287.5,52.6C285.9,52 284.5,51.2 283.3,50C282.1,48.8 281.1,47.3 280.4,45.5C279.7,43.7 279.3,41.6 279.3,39.1C279.3,36.8 279.6,34.7 280.3,33C281,31.2 281.9,29.7 283,28.5C284.2,27.3 285.5,26.4 287,25.7C288.5,25.1 290.2,24.7 291.9,24.7C293.6,24.7 295.2,25 296.7,25.5C298.2,26.1 299.5,26.9 300.5,28.1C301.6,29.3 302.4,30.8 303.1,32.7C303.7,34.6 304,36.8 304,39.5L304,40.7L286.4,40.7L286.4,41.1ZM297,36.1C296.9,35.2 296.7,34.3 296.4,33.6C296.1,32.9 295.7,32.3 295.2,31.9C294.7,31.5 294.2,31.1 293.7,30.9C293.1,30.7 292.6,30.6 292,30.6C290.8,30.6 289.6,31.1 288.5,32C287.4,32.9 286.7,34.3 286.6,36.1L297,36.1Z" style="fill:rgb(136,132,128);fill-rule:nonzero;"/>
        </g>
    </g>
</svg>
