<?xml version="1.0" encoding="UTF-8" standalone="no"?>
<!DOCTYPE svg PUBLIC "-//W3C//DTD SVG 1.1//EN" "http://www.w3.org/Graphics/SVG/1.1/DTD/svg11.dtd">
<svg width="100%" height="100%" viewBox="0 0 1000 278" version="1.1" xmlns="http://www.w3.org/2000/svg" xmlns:xlink="http://www.w3.org/1999/xlink" xml:space="preserve" xmlns:serif="http://www.serif.com/" style="fill-rule:evenodd;clip-rule:evenodd;stroke-linejoin:round;stroke-miterlimit:2;">
    <g id="Layer-1" serif:id="Layer 1" transform="matrix(3.77953,0,0,3.77953,986.288,155.769)">
        <path id="path1139" d="M-260.955,-23.352L-245.214,-23.352L-236.049,0.098L-226.764,-23.352L-211.438,-23.352L-234.516,32.162L-249.939,32.162L-243.622,17.451L-260.955,-23.352Z" style="fill:rgb(136,132,128);fill-rule:nonzero;"/>
        <path id="path1141" d="M-195.471,-24.285C-207.298,-24.285 -214.775,-13.678 -214.775,-3.115C-214.775,8.771 -206.578,18.195 -195.696,18.195C-187.578,18.195 -184.518,13.249 -184.518,13.249L-184.518,17.101L-170.788,17.101L-170.788,-23.351L-184.518,-23.351L-184.518,-19.674C-184.518,-19.674 -187.932,-24.285 -195.471,-24.285ZM-192.551,-11.285C-187.094,-11.285 -184.278,-6.967 -184.278,-3.071C-184.278,1.125 -187.295,5.242 -192.551,5.242C-196.907,5.242 -200.844,1.682 -200.844,-2.892C-200.844,-7.531 -197.678,-11.285 -192.551,-11.285Z" style="fill:rgb(136,132,128);fill-rule:nonzero;"/>
        <path id="path1145" d="M-166.06,17.101L-166.06,-41.214L-151.7,-41.214L-151.7,-19.534C-151.7,-19.534 -148.289,-24.28 -141.146,-24.28C-132.408,-24.28 -127.289,-17.77 -127.289,-8.466L-127.289,17.101L-141.543,17.101L-141.543,-4.964C-141.543,-8.112 -143.043,-11.154 -146.44,-11.154C-149.898,-11.154 -151.7,-8.066 -151.7,-4.964L-151.7,17.101L-166.06,17.101Z" style="fill:rgb(136,132,128);fill-rule:nonzero;"/>
        <path id="path1147" d="M-102.805,-24.28C-116.35,-24.28 -124.414,-13.981 -124.414,-2.947C-124.414,9.61 -114.65,18.195 -102.754,18.195C-91.225,18.195 -81.136,10 -81.136,-2.736C-81.136,-16.672 -91.699,-24.28 -102.805,-24.28ZM-102.676,-11.166C-97.892,-11.166 -94.582,-7.181 -94.582,-2.932C-94.582,0.692 -97.666,5.162 -102.676,5.162C-107.267,5.162 -110.712,1.48 -110.712,-2.972C-110.712,-7.26 -107.848,-11.166 -102.676,-11.166Z" style="fill:rgb(136,132,128);fill-rule:nonzero;"/>
        <path id="path1153" d="M-57.213,-24.28C-70.757,-24.28 -78.822,-13.981 -78.822,-2.947C-78.822,9.61 -69.057,18.195 -57.162,18.195C-45.632,18.195 -35.543,10 -35.543,-2.736C-35.543,-16.672 -46.106,-24.28 -57.213,-24.28ZM-57.084,-11.166C-52.299,-11.166 -48.989,-7.181 -48.989,-2.932C-48.989,0.692 -52.074,5.162 -57.084,5.162C-61.674,5.162 -65.119,1.48 -65.119,-2.972C-65.119,-7.26 -62.255,-11.166 -57.084,-11.166Z" style="fill:rgb(136,132,128);fill-rule:nonzero;"/>
        <circle id="path1155" cx="-24.212" cy="8.425" r="9.535" style="fill:rgb(136,132,128);"/>
        <path id="path1157" d="M-11.543,-4.614L-28.71,-4.614L-13.474,-41.214L3.628,-41.214L-11.543,-4.614Z" style="fill:rgb(136,132,128);fill-rule:nonzero;"/>
    </g>
</svg>
