<?xml version="1.0" encoding="UTF-8" standalone="no"?>
<!DOCTYPE svg PUBLIC "-//W3C//DTD SVG 1.1//EN" "http://www.w3.org/Graphics/SVG/1.1/DTD/svg11.dtd">
<svg width="100%" height="100%" viewBox="0 0 720 190" version="1.1" xmlns="http://www.w3.org/2000/svg" xmlns:xlink="http://www.w3.org/1999/xlink" xml:space="preserve" xmlns:serif="http://www.serif.com/" style="fill-rule:evenodd;clip-rule:evenodd;stroke-linejoin:round;stroke-miterlimit:2;">
    <g transform="matrix(1,0,0,1,-0.69,-0.67)">
        <path d="M211.83,155.03C195.16,155.03 184.54,148.68 179.7,144.9L179.19,144.51L179.53,143.98L186.48,133.11L186.88,132.48L187.48,132.93C194.47,138.059 202.901,140.858 211.57,140.93C221.49,140.93 227.17,136.62 227.17,129.12C227.17,120.87 220.48,118.51 208.35,114.24L206.92,113.74C194.74,109.5 183.47,103.31 183.47,86.81C183.47,71.96 194.9,62.38 212.58,62.38C223.06,62.38 231.21,64.29 238.2,68.38L238.76,68.71L238.48,69.29L232.92,80.78L232.61,81.43L231.97,81.1C226.053,78.059 219.492,76.482 212.84,76.5C206.53,76.5 199.01,78.22 199.01,86.41C199.01,94.6 204.93,96.41 216.72,100.27C229.53,104.45 243.21,110.45 243.21,128.85C243.21,145.26 231.48,155.06 211.83,155.06L211.83,155.03ZM255.77,177.38C252.61,177.36 249.47,176.98 246.4,176.23L245.76,176.09L245.86,175.44L247.51,164.67L247.61,164L248.28,164.08L249.35,164.22C250.93,164.45 252.53,164.57 254.13,164.59C260.3,164.59 264.25,162.25 266.89,157.03L243.75,89.03L243.43,88.11L260.6,88.11L260.75,88.62L274.18,136.67L286.18,88.61L286.31,88.08L302.57,88.08L302.3,88.98L281.7,156.3C277.34,170.69 269.1,177.38 255.77,177.38M396.81,153.89L380.26,153.89L380.26,109.89C380.26,104.4 379.13,100.74 373.64,100.74C369.85,100.74 365.42,103 360.82,107.29L360.82,153.91L344.27,153.91L344.27,109.91C344.27,104.42 343.14,100.76 337.64,100.76C333.64,100.76 328.95,103.23 324.82,107.55L324.82,153.93L308.27,153.93L308.27,88.09L318.69,88.09L318.85,88.57L321.77,97.57C328.62,90.24 335.56,86.67 342.94,86.67C352.32,86.67 356.15,91.78 358.32,96.6C362.95,91.9 370.08,86.67 378.94,86.67C393.71,86.67 396.81,99.34 396.81,109.97L396.81,153.89ZM425.41,155.03C413.25,155.03 404.76,147.21 404.76,136.03C404.76,128.83 407.27,123.79 412.64,120.16C418.01,116.53 427.24,113.72 441.26,111.68L441.26,110.01C441.26,102.79 438.64,100.1 431.6,100.1C425.6,100.1 419.5,102.62 413.84,105.34L413.24,105.63L412.93,105.03L407.62,95.03L407.31,94.45L407.87,94.1C416.2,88.99 423.94,86.67 432.99,86.67C449.23,86.67 457.81,95.07 457.81,110.98L457.81,153.86L447.43,153.86L447.25,153.43L444.49,147.04C440.36,150.82 433.89,155.04 425.41,155.04L425.41,155.03ZM441.26,122.73C430.43,124.83 425.09,126.81 422.93,129.51C421.59,131.06 421.18,132.35 421.18,135.01C421.18,139.92 423.82,142.52 428.82,142.52C433.37,142.36 437.74,140.71 441.26,137.83L441.26,122.73ZM526,153.89L509.45,153.89L509.45,109.89C509.45,103.48 507.2,100.74 501.95,100.74C497.53,100.74 492.35,103.39 488.37,107.65L488.37,153.91L471.82,153.91L471.82,88.09L482.24,88.09L482.4,88.57L485.31,97.64C492.13,90.28 499.31,86.7 507.24,86.7C519.69,86.7 526,94.54 526,110L526,153.89ZM560.54,155.03C547.54,155.03 541.28,148.61 541.28,135.38L541.28,99.96L531.69,99.96L531.69,88.09L541.69,88.09L544.63,70.23L544.69,69.67L557.86,69.67L557.86,88.09L571.69,88.09L571.69,99.96L557.83,99.96L557.83,134.5C557.83,140.14 558.83,142.14 564.21,142.14C566.5,142.03 568.77,141.61 570.95,140.9L571.69,140.67L571.83,141.44L573.73,151.92L573.83,152.49L573.3,152.7C569.227,154.267 564.894,155.054 560.53,155.02L560.54,155.02L560.54,155.03ZM606.26,155.03C587.84,155.03 576.39,142.13 576.39,121.37C576.39,100.61 587.69,86.67 605.13,86.67C622.57,86.67 632.97,99.35 632.97,121.46L632.97,126.08L593.49,126.08C594.4,136.72 598.7,141.48 607.4,141.48C614.51,141.48 619.22,138.84 624.2,135.66L624.79,135.28L625.16,135.87L631.22,145.34L631.57,145.88L631.07,146.27C624.9,151.04 618.78,155 606.26,155L606.26,155.03ZM593.63,115.24L616.02,115.24C615.64,104.37 612.08,99.08 605.13,99.08C598.18,99.08 594.55,104.37 593.63,115.24M669.69,155.03C647.75,155.03 639.94,137.64 639.94,121.37C639.91,105.38 647.69,86.67 669.69,86.67C678.75,86.67 685.07,88.83 690.86,93.91L691.33,94.32L690.97,94.84L684.03,104.84L683.61,105.42L683.03,104.99C679.309,101.952 674.622,100.341 669.82,100.45C661.31,100.45 657,107.45 657,121.23C657,135.01 661.32,141.37 670.19,141.37C676.05,141.37 679.86,139.17 683.75,135.85L684.31,135.38L684.76,135.96L691.96,145.18L692.33,145.66L691.91,146.1C685.97,152.18 678.91,155.02 669.69,155.02L669.69,155.03ZM82.9,190.49C37.5,190.49 0.7,153.7 0.69,108.3C0.69,62.9 37.48,26.1 82.88,26.09C128.28,26.09 165.08,62.88 165.09,108.28C165.03,153.66 128.27,190.42 82.9,190.49M82.9,52.1C51.88,52.12 26.75,77.27 26.77,108.29C26.79,139.31 51.94,164.44 82.96,164.42C113.98,164.4 139.11,139.25 139.09,108.23C139.09,93.35 133.17,79.07 122.64,68.55C112.121,57.99 97.805,52.064 82.9,52.1M172.44,13.44L178.85,13.44L178.85,19.84L172.44,19.84L172.44,13.44ZM172.44,0.67L178.85,0.67L178.85,7.09L172.44,7.09L172.44,0.67ZM154.4,19.8L160.39,19.8L160.39,26.06L154.4,26.06L154.4,19.8ZM142.54,32.09L148.58,32.09L148.58,38.07L142.54,38.07L142.54,32.09Z" style="fill:rgb(136,132,128);fill-rule:nonzero;"/>
    </g>
    <g transform="matrix(1,0,0,1,-0.69,-0.67)">
        <path d="M160.39,32.09L160.39,38.07L154.4,38.07L154.4,32.09L148.58,32.09L148.58,19.8L154.4,19.8L154.4,13.44L166.09,13.44L166.09,19.8L154.41,19.8L154.41,32.09L160.39,32.09ZM160.39,32.09L160.39,26.06L167.1,26.06L167.1,32.09L160.39,32.09ZM133.11,69.2L133.11,75.94L127.11,75.94L127.11,82.94L122.11,82.94L122.11,88.94L117.33,88.94L117.33,95.63C108.37,108.54 100.8,124.24 95.58,138.24C93.16,144.85 80.89,143.84 78.16,137.35C73.01,125.02 67.7,109.57 50.7,90.92C43.32,83.3 48.7,78.45 53.25,79.8C61.44,82.49 71.96,89.93 85.44,108.7C89.13,99.37 101.5,76.49 106.44,69.15L110.84,69.15L110.84,63.15L114.84,63.15L114.84,57.15L120.84,57.15L120.84,47.78L127.21,47.78L127.21,53.78L133.21,53.78L133.21,47.78L127.21,47.78L127.21,42.42L132.58,42.42L132.58,38.07L142.58,38.07L142.58,44.07L148.58,44.07L148.58,38.07L154.36,38.07L154.36,50.82L149.2,50.82L149.2,55.82L143.84,55.82L143.84,63.13L139.06,63.13L139.06,69.2L133.11,69.2L133.11,63.07L127.03,63.07L127.03,69.2L133.11,69.2ZM136.53,26.36L142.54,26.36L142.54,32.09L136.53,32.09L136.53,26.36ZM166.1,7.09L172.44,7.09L172.44,13.44L166.1,13.44L166.1,7.09ZM701.57,144.55L701.57,142.93L708.69,142.93L708.69,144.55L706.19,144.55L706.19,152.84L704.14,152.84L704.14,144.55L701.57,144.55ZM717.65,142.93L720.69,142.93L720.69,152.84L718.69,152.84L718.69,145.26L716.57,152.84L714.69,152.84L712.69,145.26L712.69,152.84L710.69,152.84L710.71,142.93L713.78,142.93L715.78,150.16L717.65,142.93Z" style="fill:rgb(136,132,128);"/>
    </g>
</svg>
