<?xml version="1.0" encoding="UTF-8" standalone="no"?>
<!DOCTYPE svg PUBLIC "-//W3C//DTD SVG 1.1//EN" "http://www.w3.org/Graphics/SVG/1.1/DTD/svg11.dtd">
<svg width="100%" height="100%" viewBox="0 0 997 170" version="1.1" xmlns="http://www.w3.org/2000/svg" xmlns:xlink="http://www.w3.org/1999/xlink" xml:space="preserve" xmlns:serif="http://www.serif.com/" style="fill-rule:evenodd;clip-rule:evenodd;stroke-linejoin:round;stroke-miterlimit:2;">
    <g>
        <path d="M0,170L0,50L117.7,50C142.3,50 154.5,62.3 154.5,86.8L154.5,170L123.1,170L123.1,84.5C123.1,79.7 120.7,77.2 115.8,77.2L92.9,77.2L92.9,170L61.6,170L61.6,77.3L31.4,77.3L31.4,170L0,170Z" style="fill:rgb(136,132,128);fill-rule:nonzero;"/>
        <path d="M177.1,0L209.4,0L209.4,30.5L177.1,30.5L177.1,0ZM177.6,50L209,50L209,170L177.6,170L177.6,50Z" style="fill:rgb(136,132,128);fill-rule:nonzero;"/>
        <path d="M235.9,170L235.9,50L353.6,50C378.2,50 390.4,62.3 390.4,86.8L390.4,170L359,170L359,84.5C359,79.7 356.6,77.2 351.7,77.2L328.8,77.2L328.8,170L297.4,170L297.4,77.3L267.2,77.3L267.2,170L235.9,170Z" style="fill:rgb(136,132,128);fill-rule:nonzero;"/>
        <path d="M413.7,133.2L413.7,86.8C413.7,62.3 426,50 450.5,50L480,50C504.6,50 516.8,62.3 516.8,86.8L516.8,121.8L445,121.8L445,135.4C445,140.3 447.4,142.7 452.3,142.7L516.8,142.7L516.8,170L450.4,170C425.9,170 413.7,157.7 413.7,133.2M444.9,97.3L485.4,97.3L485.4,84.5C485.4,79.7 483,77.2 478.1,77.2L452.2,77.2C447.3,77.2 444.9,79.6 444.9,84.5L444.9,97.3Z" style="fill:rgb(136,132,128);fill-rule:nonzero;"/>
        <path d="M539.2,133.2L539.2,86.8C539.2,62.2 551.5,50 576,50L631.9,50L631.9,77.2L577.8,77.2C573,77.2 570.5,79.6 570.5,84.5L570.5,135.4C570.5,140.3 572.9,142.7 577.8,142.7L631.9,142.7L631.9,170L576,170C551.5,170 539.2,157.7 539.2,133.2" style="fill:rgb(136,132,128);fill-rule:nonzero;"/>
        <path d="M688,170C663.5,170 651.2,158 651.2,133.9C651.2,109.8 663.5,97.8 688,97.8L719.4,97.8L719.4,84.5C719.4,79.7 717,77.2 712.1,77.2L657.5,77.2L657.5,50L714,50C738.6,50 750.8,62.3 750.8,86.8L750.8,170L688,170ZM682.6,135.5C682.6,140.3 685,142.8 689.9,142.8L719.4,142.8L719.4,122.3L689.9,122.3C685.1,122.3 682.6,124.7 682.6,129.6L682.6,135.5Z" style="fill:rgb(136,132,128);fill-rule:nonzero;"/>
        <path d="M774.2,159.8L774.2,142.8L826.5,142.8C831.6,142.8 834.2,139.9 834.2,134.2C834.2,128.3 831.9,125 827.4,124.2L802.9,120.1C783.8,116.9 774.3,105.9 774.3,86.9C774.3,62.4 786.6,50.1 811.1,50.1L860,50.1L860,77.3L813.2,77.3C808.1,77.3 805.5,80.2 805.5,85.9C805.5,91.8 807.8,95.1 812.3,95.9L836.8,100C855.9,103.2 865.4,114.3 865.4,133.2C865.4,157.8 853.1,170 828.6,170L774.3,170L774.3,159.8L774.2,159.8Z" style="fill:rgb(136,132,128);fill-rule:nonzero;"/>
        <path d="M885.4,133.2L885.4,13.2L916.8,13.2L916.8,50L955.9,50L955.9,77.3L916.8,77.3L916.8,135.5C916.8,140.4 919.2,142.8 924.1,142.8L958.2,142.8L958.2,170L922.3,170C897.7,170 885.4,157.7 885.4,133.2" style="fill:rgb(136,132,128);fill-rule:nonzero;"/>
        <path d="M996.3,58.1C996.3,62.7 992.7,66.3 988,66.3C983.3,66.3 979.6,62.7 979.6,58.1C979.6,53.6 983.3,50 988,50C992.7,50 996.3,53.6 996.3,58.1M981.7,58.1C981.7,61.7 984.4,64.6 988,64.6C991.6,64.6 994.2,61.7 994.2,58.2C994.2,54.6 991.6,51.7 988,51.7C984.4,51.6 981.7,54.5 981.7,58.1M986.7,62.3L984.8,62.3L984.8,54.2C985.5,54.1 986.6,53.9 987.9,53.9C989.4,53.9 990.1,54.2 990.7,54.5C991.1,54.8 991.5,55.5 991.5,56.3C991.5,57.2 990.8,57.9 989.8,58.2L989.8,58.3C990.6,58.6 991,59.2 991.3,60.3C991.6,61.5 991.7,62 991.9,62.3L989.9,62.3C989.6,62 989.5,61.3 989.2,60.3C989.1,59.4 988.6,59 987.5,59L986.6,59L986.6,62.3L986.7,62.3ZM986.8,57.7L987.7,57.7C988.7,57.7 989.6,57.4 989.6,56.5C989.6,55.8 989.1,55.3 987.9,55.3C987.4,55.3 987.1,55.4 986.9,55.4L986.9,57.7L986.8,57.7Z" style="fill:rgb(136,132,128);fill-rule:nonzero;"/>
    </g>
</svg>
